<mxfile host="Electron" modified="2023-12-22T13:27:11.167Z" agent="Mozilla/5.0 (Windows NT 10.0; Win64; x64) AppleWebKit/537.36 (KHTML, like Gecko) draw.io/22.1.2 Chrome/114.0.5735.289 Electron/25.9.4 Safari/537.36" etag="4GgkFC0OfdzrJCOUTgZg" version="22.1.2" type="device">
  <diagram name="classes" id="CmoSi6RStzYnb8cbzai6">
    <mxGraphModel dx="1036" dy="614" grid="1" gridSize="10" guides="1" tooltips="1" connect="1" arrows="1" fold="1" page="1" pageScale="1" pageWidth="1169" pageHeight="827" math="0" shadow="0">
      <root>
        <mxCell id="0" />
        <mxCell id="1" parent="0" />
        <mxCell id="_Lmfov8zG5fcjkYk13VI-1" value="Users" style="swimlane;fontStyle=0;childLayout=stackLayout;horizontal=1;startSize=40;horizontalStack=0;resizeParent=1;resizeParentMax=0;resizeLast=0;collapsible=1;marginBottom=0;whiteSpace=wrap;html=1;" parent="1" vertex="1">
          <mxGeometry x="80" y="80" width="240" height="200" as="geometry" />
        </mxCell>
        <mxCell id="_Lmfov8zG5fcjkYk13VI-2" value="id_user: CHAR(6) UNIQUE NOT NULL" style="text;strokeColor=none;fillColor=none;align=left;verticalAlign=middle;spacingLeft=4;spacingRight=4;overflow=hidden;points=[[0,0.5],[1,0.5]];portConstraint=eastwest;rotatable=0;whiteSpace=wrap;html=1;" parent="_Lmfov8zG5fcjkYk13VI-1" vertex="1">
          <mxGeometry y="40" width="240" height="40" as="geometry" />
        </mxCell>
        <mxCell id="_Lmfov8zG5fcjkYk13VI-5" value="index_user: SERIAL UNIQUE NOT NULL" style="text;strokeColor=none;fillColor=none;align=left;verticalAlign=middle;spacingLeft=4;spacingRight=4;overflow=hidden;points=[[0,0.5],[1,0.5]];portConstraint=eastwest;rotatable=0;whiteSpace=wrap;html=1;" parent="_Lmfov8zG5fcjkYk13VI-1" vertex="1">
          <mxGeometry y="80" width="240" height="40" as="geometry" />
        </mxCell>
        <mxCell id="_Lmfov8zG5fcjkYk13VI-6" value="password: VARCHAR(128) NOT NULL" style="text;strokeColor=none;fillColor=none;align=left;verticalAlign=middle;spacingLeft=4;spacingRight=4;overflow=hidden;points=[[0,0.5],[1,0.5]];portConstraint=eastwest;rotatable=0;whiteSpace=wrap;html=1;" parent="_Lmfov8zG5fcjkYk13VI-1" vertex="1">
          <mxGeometry y="120" width="240" height="40" as="geometry" />
        </mxCell>
        <mxCell id="_Lmfov8zG5fcjkYk13VI-7" value="timestamp: DATE NOT NULL" style="text;strokeColor=none;fillColor=none;align=left;verticalAlign=middle;spacingLeft=4;spacingRight=4;overflow=hidden;points=[[0,0.5],[1,0.5]];portConstraint=eastwest;rotatable=0;whiteSpace=wrap;html=1;" parent="_Lmfov8zG5fcjkYk13VI-1" vertex="1">
          <mxGeometry y="160" width="240" height="40" as="geometry" />
        </mxCell>
        <mxCell id="_Lmfov8zG5fcjkYk13VI-8" value="Roles" style="swimlane;fontStyle=0;childLayout=stackLayout;horizontal=1;startSize=40;horizontalStack=0;resizeParent=1;resizeParentMax=0;resizeLast=0;collapsible=1;marginBottom=0;whiteSpace=wrap;html=1;" parent="1" vertex="1">
          <mxGeometry x="520" y="80" width="240" height="80" as="geometry">
            <mxRectangle x="480" y="40" width="70" height="40" as="alternateBounds" />
          </mxGeometry>
        </mxCell>
        <mxCell id="_Lmfov8zG5fcjkYk13VI-9" value="role: VARCHAR(32) UNIQUE NOT NULL" style="text;strokeColor=none;fillColor=none;align=left;verticalAlign=middle;spacingLeft=4;spacingRight=4;overflow=hidden;points=[[0,0.5],[1,0.5]];portConstraint=eastwest;rotatable=0;whiteSpace=wrap;html=1;" parent="_Lmfov8zG5fcjkYk13VI-8" vertex="1">
          <mxGeometry y="40" width="240" height="40" as="geometry" />
        </mxCell>
        <mxCell id="_Lmfov8zG5fcjkYk13VI-14" value="" style="endArrow=none;html=1;rounded=0;entryX=1;entryY=0.5;entryDx=0;entryDy=0;exitX=0;exitY=0.5;exitDx=0;exitDy=0;" parent="1" source="_Lmfov8zG5fcjkYk13VI-9" target="_Lmfov8zG5fcjkYk13VI-2" edge="1">
          <mxGeometry width="50" height="50" relative="1" as="geometry">
            <mxPoint x="500" y="290" as="sourcePoint" />
            <mxPoint x="350" y="160" as="targetPoint" />
          </mxGeometry>
        </mxCell>
        <mxCell id="_Lmfov8zG5fcjkYk13VI-15" value="0..*" style="text;html=1;strokeColor=none;fillColor=none;align=center;verticalAlign=middle;whiteSpace=wrap;rounded=0;" parent="1" vertex="1">
          <mxGeometry x="320" y="110" width="40" height="20" as="geometry" />
        </mxCell>
        <mxCell id="_Lmfov8zG5fcjkYk13VI-16" value="1..*" style="text;html=1;strokeColor=none;fillColor=none;align=center;verticalAlign=middle;whiteSpace=wrap;rounded=0;" parent="1" vertex="1">
          <mxGeometry x="480" y="110" width="40" height="20" as="geometry" />
        </mxCell>
        <mxCell id="_Lmfov8zG5fcjkYk13VI-17" value="contains &amp;gt;" style="text;html=1;strokeColor=none;fillColor=none;align=center;verticalAlign=middle;whiteSpace=wrap;rounded=0;" parent="1" vertex="1">
          <mxGeometry x="360" y="110" width="120" height="20" as="geometry" />
        </mxCell>
        <mxCell id="_Lmfov8zG5fcjkYk13VI-18" value="Permissions" style="swimlane;fontStyle=0;childLayout=stackLayout;horizontal=1;startSize=40;horizontalStack=0;resizeParent=1;resizeParentMax=0;resizeLast=0;collapsible=1;marginBottom=0;whiteSpace=wrap;html=1;" parent="1" vertex="1">
          <mxGeometry x="520" y="360" width="240" height="80" as="geometry" />
        </mxCell>
        <mxCell id="_Lmfov8zG5fcjkYk13VI-19" value="name: VARCHAR(64) UNIQUE NOT NULL" style="text;strokeColor=none;fillColor=none;align=left;verticalAlign=middle;spacingLeft=4;spacingRight=4;overflow=hidden;points=[[0,0.5],[1,0.5]];portConstraint=eastwest;rotatable=0;whiteSpace=wrap;html=1;" parent="_Lmfov8zG5fcjkYk13VI-18" vertex="1">
          <mxGeometry y="40" width="240" height="40" as="geometry" />
        </mxCell>
        <mxCell id="_Lmfov8zG5fcjkYk13VI-20" value="" style="endArrow=none;html=1;rounded=0;exitX=0.5;exitY=0;exitDx=0;exitDy=0;entryX=0.5;entryY=1;entryDx=0;entryDy=0;" parent="1" source="_Lmfov8zG5fcjkYk13VI-18" target="_Lmfov8zG5fcjkYk13VI-8" edge="1">
          <mxGeometry width="50" height="50" relative="1" as="geometry">
            <mxPoint x="630" y="279.66999999999996" as="sourcePoint" />
            <mxPoint x="710" y="200" as="targetPoint" />
          </mxGeometry>
        </mxCell>
        <mxCell id="_Lmfov8zG5fcjkYk13VI-21" value="0..*" style="text;html=1;strokeColor=none;fillColor=none;align=center;verticalAlign=middle;whiteSpace=wrap;rounded=0;" parent="1" vertex="1">
          <mxGeometry x="600" y="340" width="40" height="20" as="geometry" />
        </mxCell>
        <mxCell id="_Lmfov8zG5fcjkYk13VI-22" value="1..*" style="text;html=1;strokeColor=none;fillColor=none;align=center;verticalAlign=middle;whiteSpace=wrap;rounded=0;" parent="1" vertex="1">
          <mxGeometry x="600" y="160" width="40" height="20" as="geometry" />
        </mxCell>
        <mxCell id="_Lmfov8zG5fcjkYk13VI-23" value="has access to &amp;gt;" style="text;html=1;strokeColor=none;fillColor=none;align=center;verticalAlign=middle;whiteSpace=wrap;rounded=0;rotation=90;" parent="1" vertex="1">
          <mxGeometry x="600" y="249.67" width="120" height="20" as="geometry" />
        </mxCell>
        <mxCell id="_Lmfov8zG5fcjkYk13VI-24" value="Endpoints" style="swimlane;fontStyle=0;childLayout=stackLayout;horizontal=1;startSize=40;horizontalStack=0;resizeParent=1;resizeParentMax=0;resizeLast=0;collapsible=1;marginBottom=0;whiteSpace=wrap;html=1;" parent="1" vertex="1">
          <mxGeometry x="80" y="360" width="240" height="120" as="geometry" />
        </mxCell>
        <mxCell id="_Lmfov8zG5fcjkYk13VI-25" value="http_method: VARCHAR(8) NOT NULL" style="text;strokeColor=none;fillColor=none;align=left;verticalAlign=middle;spacingLeft=4;spacingRight=4;overflow=hidden;points=[[0,0.5],[1,0.5]];portConstraint=eastwest;rotatable=0;whiteSpace=wrap;html=1;" parent="_Lmfov8zG5fcjkYk13VI-24" vertex="1">
          <mxGeometry y="40" width="240" height="40" as="geometry" />
        </mxCell>
        <mxCell id="_Lmfov8zG5fcjkYk13VI-26" value="path: VARCHAR(256) NOT NULL" style="text;strokeColor=none;fillColor=none;align=left;verticalAlign=middle;spacingLeft=4;spacingRight=4;overflow=hidden;points=[[0,0.5],[1,0.5]];portConstraint=eastwest;rotatable=0;whiteSpace=wrap;html=1;" parent="_Lmfov8zG5fcjkYk13VI-24" vertex="1">
          <mxGeometry y="80" width="240" height="40" as="geometry" />
        </mxCell>
        <mxCell id="_Lmfov8zG5fcjkYk13VI-27" value="" style="endArrow=none;html=1;rounded=0;entryX=1;entryY=0.5;entryDx=0;entryDy=0;exitX=0;exitY=0.5;exitDx=0;exitDy=0;" parent="1" source="_Lmfov8zG5fcjkYk13VI-19" target="_Lmfov8zG5fcjkYk13VI-25" edge="1">
          <mxGeometry width="50" height="50" relative="1" as="geometry">
            <mxPoint x="530" y="150" as="sourcePoint" />
            <mxPoint x="330" y="150" as="targetPoint" />
          </mxGeometry>
        </mxCell>
        <mxCell id="_Lmfov8zG5fcjkYk13VI-28" value="1..*" style="text;html=1;strokeColor=none;fillColor=none;align=center;verticalAlign=middle;whiteSpace=wrap;rounded=0;" parent="1" vertex="1">
          <mxGeometry x="320" y="390" width="40" height="20" as="geometry" />
        </mxCell>
        <mxCell id="_Lmfov8zG5fcjkYk13VI-29" value="0..1" style="text;html=1;strokeColor=none;fillColor=none;align=center;verticalAlign=middle;whiteSpace=wrap;rounded=0;" parent="1" vertex="1">
          <mxGeometry x="480" y="390" width="40" height="20" as="geometry" />
        </mxCell>
        <mxCell id="_Lmfov8zG5fcjkYk13VI-30" value="&amp;lt;gives access to" style="text;html=1;strokeColor=none;fillColor=none;align=center;verticalAlign=middle;whiteSpace=wrap;rounded=0;" parent="1" vertex="1">
          <mxGeometry x="360" y="390" width="120" height="20" as="geometry" />
        </mxCell>
        <mxCell id="Lc_Jo_TmMcyb7zgdB_hW-8" value="" style="rounded=0;whiteSpace=wrap;html=1;strokeColor=#2142EF;fillColor=none;strokeWidth=3;" parent="1" vertex="1">
          <mxGeometry x="880" y="40" width="40" height="40" as="geometry" />
        </mxCell>
        <mxCell id="Lc_Jo_TmMcyb7zgdB_hW-9" value="AuthService App Scope" style="text;html=1;strokeColor=none;fillColor=none;align=left;verticalAlign=middle;whiteSpace=wrap;rounded=0;fontColor=#2142EF;fontStyle=1" parent="1" vertex="1">
          <mxGeometry x="940" y="40" width="180" height="40" as="geometry" />
        </mxCell>
        <mxCell id="Lc_Jo_TmMcyb7zgdB_hW-10" value="" style="rounded=0;whiteSpace=wrap;html=1;strokeColor=#FF3333;fillColor=none;strokeWidth=3;" parent="1" vertex="1">
          <mxGeometry x="880" y="200" width="40" height="40" as="geometry" />
        </mxCell>
        <mxCell id="Lc_Jo_TmMcyb7zgdB_hW-11" value="&lt;span&gt;OtherService App Scope&lt;/span&gt;" style="text;html=1;strokeColor=none;fillColor=none;align=left;verticalAlign=middle;whiteSpace=wrap;rounded=0;fontColor=#FF3333;fontStyle=3" parent="1" vertex="1">
          <mxGeometry x="940" y="200" width="180" height="40" as="geometry" />
        </mxCell>
        <mxCell id="Lc_Jo_TmMcyb7zgdB_hW-16" value="" style="rounded=0;whiteSpace=wrap;html=1;fillColor=none;strokeColor=#00CC00;strokeWidth=3;" parent="1" vertex="1">
          <mxGeometry x="880" y="120" width="40" height="40" as="geometry" />
        </mxCell>
        <mxCell id="Lc_Jo_TmMcyb7zgdB_hW-17" value="AuthService DB Scope" style="text;html=1;strokeColor=none;fillColor=none;align=left;verticalAlign=middle;whiteSpace=wrap;rounded=0;fontColor=#00CC00;fontStyle=1" parent="1" vertex="1">
          <mxGeometry x="940" y="120" width="180" height="40" as="geometry" />
        </mxCell>
        <mxCell id="Lc_Jo_TmMcyb7zgdB_hW-18" value="" style="rounded=0;whiteSpace=wrap;html=1;strokeColor=#FF8000;fillColor=none;strokeWidth=3;" parent="1" vertex="1">
          <mxGeometry x="880" y="280" width="40" height="40" as="geometry" />
        </mxCell>
        <mxCell id="Lc_Jo_TmMcyb7zgdB_hW-20" value="&lt;span&gt;OtherService DB Scope&lt;/span&gt;" style="text;html=1;strokeColor=none;fillColor=none;align=left;verticalAlign=middle;whiteSpace=wrap;rounded=0;fontColor=#FF8000;fontStyle=3" parent="1" vertex="1">
          <mxGeometry x="940" y="280" width="180" height="40" as="geometry" />
        </mxCell>
        <mxCell id="Lc_Jo_TmMcyb7zgdB_hW-22" value="" style="endArrow=none;html=1;rounded=0;strokeWidth=3;strokeColor=#00CC00;" parent="1" edge="1">
          <mxGeometry width="50" height="50" relative="1" as="geometry">
            <mxPoint x="40" y="320" as="sourcePoint" />
            <mxPoint x="40" y="320" as="targetPoint" />
            <Array as="points">
              <mxPoint x="40" y="40" />
              <mxPoint x="800" y="40" />
              <mxPoint x="800" y="520" />
              <mxPoint x="470" y="520" />
              <mxPoint x="470" y="320" />
            </Array>
          </mxGeometry>
        </mxCell>
        <mxCell id="Lc_Jo_TmMcyb7zgdB_hW-23" value="" style="endArrow=none;html=1;rounded=0;strokeWidth=3;strokeColor=#2142EF;" parent="1" edge="1">
          <mxGeometry width="50" height="50" relative="1" as="geometry">
            <mxPoint x="50" y="510" as="sourcePoint" />
            <mxPoint x="50" y="510" as="targetPoint" />
            <Array as="points">
              <mxPoint x="50" y="330" />
              <mxPoint x="790" y="330" />
              <mxPoint x="790" y="510" />
            </Array>
          </mxGeometry>
        </mxCell>
        <mxCell id="Lc_Jo_TmMcyb7zgdB_hW-24" value="" style="endArrow=none;html=1;rounded=0;strokeWidth=3;strokeColor=#FF8000;" parent="1" edge="1">
          <mxGeometry width="50" height="50" relative="1" as="geometry">
            <mxPoint x="480" y="500" as="sourcePoint" />
            <mxPoint x="480" y="500" as="targetPoint" />
            <Array as="points">
              <mxPoint x="480" y="60" />
              <mxPoint x="780" y="60" />
              <mxPoint x="780" y="500" />
            </Array>
          </mxGeometry>
        </mxCell>
        <mxCell id="Lc_Jo_TmMcyb7zgdB_hW-25" value="" style="endArrow=none;html=1;rounded=0;strokeWidth=3;strokeColor=#FF3333;" parent="1" edge="1">
          <mxGeometry width="50" height="50" relative="1" as="geometry">
            <mxPoint x="770" y="340" as="sourcePoint" />
            <mxPoint x="770" y="340" as="targetPoint" />
            <Array as="points">
              <mxPoint x="770" y="490" />
              <mxPoint x="70" y="490" />
              <mxPoint x="70" y="340" />
            </Array>
          </mxGeometry>
        </mxCell>
      </root>
    </mxGraphModel>
  </diagram>
</mxfile>
